HIERARCHY
ROOT joint_0
{
	OFFSET 0.000000 0.000000 0.000000
	CHANNELS 6 Xposition Yposition Zposition Zrotation Yrotation Xrotation 
	JOINT joint_1
	{
		OFFSET 0.587158 0.057678 95.682007
		CHANNELS 3 Zrotation Yrotation Xrotation
		JOINT joint_2
		{
			OFFSET -7.116699 -0.219910 87.157959
			CHANNELS 3 Zrotation Yrotation Xrotation
			JOINT joint_3
			{
				OFFSET -5.892822 -0.290222 87.151001
				CHANNELS 3 Zrotation Yrotation Xrotation
				JOINT joint_4
				{
					OFFSET 5.544678 -0.099609 123.768066
					CHANNELS 3 Zrotation Yrotation Xrotation
					JOINT joint_5
					{
						OFFSET 41.981201 4.519775 84.257935
						CHANNELS 3 Zrotation Yrotation Xrotation
						End Site
						{
							OFFSET 0.000000 0.000000 0.000000
						}
					}
				}
				JOINT joint_6
				{
					OFFSET 3.940918 -26.976501 69.308105
					CHANNELS 3 Zrotation Yrotation Xrotation
					JOINT joint_7
					{
						OFFSET 4.776123 -152.592468 -16.842041
						CHANNELS 3 Zrotation Yrotation Xrotation
						JOINT joint_8
						{
							OFFSET 54.421875 -30.424072 -248.864014
							CHANNELS 3 Zrotation Yrotation Xrotation
							JOINT joint_9
							{
								OFFSET 42.120117 -33.387878 -236.524963
								CHANNELS 3 Zrotation Yrotation Xrotation
								End Site
								{
									OFFSET 0.000000 0.000000 0.000000
								}
							}
						}
					}
				}
				JOINT joint_10
				{
					OFFSET 2.312012 26.904114 69.425049
					CHANNELS 3 Zrotation Yrotation Xrotation
					JOINT joint_11
					{
						OFFSET 0.971436 152.197815 -20.626953
						CHANNELS 3 Zrotation Yrotation Xrotation
						JOINT joint_12
						{
							OFFSET 49.954102 28.991455 -249.970093
							CHANNELS 3 Zrotation Yrotation Xrotation
							JOINT joint_13
							{
								OFFSET 48.146973 19.598389 -236.919922
								CHANNELS 3 Zrotation Yrotation Xrotation
								End Site
								{
									OFFSET 0.000000 0.000000 0.000000
								}
							}
						}
					}
				}
			}
		}
	}
	JOINT joint_14
	{
		OFFSET 16.305664 -89.442932 -108.224976
		CHANNELS 3 Zrotation Yrotation Xrotation
		JOINT joint_15
		{
			OFFSET -22.282471 13.437134 -412.904968
			CHANNELS 3 Zrotation Yrotation Xrotation
			JOINT joint_16
			{
				OFFSET -45.426025 14.484802 -445.892029
				CHANNELS 3 Zrotation Yrotation Xrotation
				JOINT joint_17
				{
					OFFSET 173.389404 -9.944031 -76.473001
					CHANNELS 3 Zrotation Yrotation Xrotation
					End Site
					{
						OFFSET 0.000000 0.000000 0.000000
					}
				}
			}
		}
	}
	JOINT joint_18
	{
		OFFSET 13.392822 89.408875 -108.653992
		CHANNELS 3 Zrotation Yrotation Xrotation
		JOINT joint_19
		{
			OFFSET -29.032959 24.483521 -411.977966
			CHANNELS 3 Zrotation Yrotation Xrotation
			JOINT joint_20
			{
				OFFSET -30.530029 28.986328 -446.453018
				CHANNELS 3 Zrotation Yrotation Xrotation
				JOINT joint_21
				{
					OFFSET 170.330078 33.400757 -76.698997
					CHANNELS 3 Zrotation Yrotation Xrotation
					End Site
					{
						OFFSET 0.000000 0.000000 0.000000
					}
				}
			}
		}
	}
}
MOTION
Frames: 10
Frame Time: 0.016667
-2771.934326 964.037659 1062.576050 -3.167899 -0.468082 0.229417 -1.709562 1.737383 1.742322 -1.861009 -0.391062 -0.383627 -1.827192 0.359347 0.293359 1.111937 0.351069 -2.071257 0.000000 0.000000 0.000000 -3.225960 -13.423878 -1.274506 -17.203293 -7.331411 -1.996352 -170.937917 -65.029911 -140.288842 0.000000 0.000000 0.000000 3.346025 -12.055212 2.501208 47.269274 -3.752861 1.142051 -174.646142 -45.949303 114.772099 0.000000 0.000000 0.000000 -2.160734 -3.996246 -5.584537 -2.367130 3.908759 1.184154 -2.302381 0.251572 -0.988369 0.000000 0.000000 0.000000 2.795519 -3.335159 -0.005269 3.042845 1.394080 0.840984 3.104794 2.351386 0.931350 0.000000 0.000000 0.000000 
-2771.916992 964.029663 1062.566040 -3.195197 -0.463581 0.233270 -1.706384 1.743414 1.748446 -1.858657 -0.390352 -0.386965 -1.824339 0.359890 0.295867 1.111300 0.350786 -2.070156 0.000000 0.000000 0.000000 -3.219710 -13.426231 -1.293563 -17.232692 -7.332786 -1.985333 -170.944318 -64.999451 -140.246409 0.000000 0.000000 0.000000 3.348936 -12.092531 2.502029 47.372392 -3.745244 1.124858 -174.625893 -45.831660 114.691317 0.000000 0.000000 0.000000 -2.150949 -4.018705 -5.590564 -2.356803 3.934081 1.187681 -2.293406 0.249482 -0.984565 0.000000 0.000000 0.000000 2.806483 -3.343859 -0.008686 3.055098 1.411432 0.841974 3.114781 2.338911 0.938262 0.000000 0.000000 0.000000 
-2771.865967 964.015564 1062.562988 -3.226835 -0.456490 0.236319 -1.699681 1.733788 1.750873 -1.851876 -0.390353 -0.385829 -1.817771 0.359340 0.294340 1.110487 0.368767 -2.070451 0.000000 0.000000 0.000000 -3.224237 -13.427113 -1.305227 -17.278771 -7.330121 -1.974396 -170.958289 -64.967047 -140.172398 0.000000 0.000000 0.000000 3.348101 -12.133061 2.501110 47.512754 -3.743016 1.114093 -174.595675 -45.673186 114.571904 0.000000 0.000000 0.000000 -2.140044 -4.034192 -5.595296 -2.345860 3.946092 1.190961 -2.283430 0.239694 -0.980780 0.000000 0.000000 0.000000 2.819632 -3.346722 -0.007074 3.069404 1.417504 0.835267 3.127105 2.329077 0.945720 0.000000 0.000000 0.000000 
-2771.799316 963.996155 1062.564941 -3.260171 -0.448812 0.239461 -1.691186 1.714238 1.751320 -1.842881 -0.388054 -0.384038 -1.809173 0.357121 0.292026 1.109623 0.395955 -2.071532 0.000000 0.000000 0.000000 -3.235827 -13.427454 -1.312733 -17.333801 -7.325204 -1.963157 -170.976244 -64.935455 -140.079796 0.000000 0.000000 0.000000 3.344475 -12.174140 2.499073 47.670608 -3.744390 1.107593 -174.559470 -45.495853 114.433682 0.000000 0.000000 0.000000 -2.128571 -4.046472 -5.599754 -2.334528 3.953914 1.193885 -2.273079 0.223561 -0.977202 0.000000 0.000000 0.000000 2.833883 -3.346783 -0.003801 3.084699 1.419473 0.825839 3.140518 2.320194 0.953487 0.000000 0.000000 0.000000 
-2771.740723 963.971619 1062.564941 -3.290723 -0.444995 0.244228 -1.683845 1.696393 1.748708 -1.834831 -0.386188 -0.381866 -1.801498 0.354701 0.290554 1.108615 0.422540 -2.072280 0.000000 0.000000 0.000000 -3.250347 -13.428041 -1.319889 -17.385848 -7.320375 -1.949639 -170.992491 -64.909924 -139.987978 0.000000 0.000000 0.000000 3.340317 -12.213695 2.493427 47.819960 -3.748165 1.104043 -174.521437 -45.327948 114.300818 0.000000 0.000000 0.000000 -2.117754 -4.059216 -5.604814 -2.323504 3.969736 1.194679 -2.263607 0.207417 -0.974003 0.000000 0.000000 0.000000 2.847262 -3.343446 -0.004790 3.098181 1.421806 0.822210 3.152507 2.310824 0.960704 0.000000 0.000000 0.000000 
-2771.700195 963.941528 1062.562988 -3.317672 -0.447274 0.252856 -1.680077 1.683486 1.741612 -1.830151 -0.386212 -0.379586 -1.797234 0.354625 0.287944 1.108301 0.445131 -2.074032 0.000000 0.000000 0.000000 -3.263239 -13.429195 -1.325436 -17.426115 -7.317914 -1.932812 -171.002778 -64.898438 -139.908695 0.000000 0.000000 0.000000 3.342981 -12.259090 2.485316 47.971490 -3.754350 1.101884 -174.478356 -45.156197 114.164204 0.000000 0.000000 0.000000 -2.106962 -4.074590 -5.612572 -2.311994 4.000630 1.192681 -2.254633 0.192014 -0.970971 0.000000 0.000000 0.000000 2.859547 -3.334009 -0.015082 3.108581 1.422924 0.829956 3.162410 2.302272 0.966815 0.000000 0.000000 0.000000 
-2771.668701 963.906128 1062.558960 -3.341572 -0.453639 0.263330 -1.677972 1.672561 1.731838 -1.827041 -0.385690 -0.378248 -1.794363 0.353653 0.287108 1.108527 0.466122 -2.076732 0.000000 0.000000 0.000000 -3.277198 -13.429653 -1.331029 -17.462939 -7.316264 -1.913332 -171.010937 -64.893413 -139.831483 0.000000 0.000000 0.000000 3.347491 -12.302725 2.473492 48.110345 -3.762607 1.102507 -174.433382 -44.998308 114.034959 0.000000 0.000000 0.000000 -2.096861 -4.090279 -5.621325 -2.300881 4.039595 1.188854 -2.246600 0.176803 -0.968334 0.000000 0.000000 0.000000 2.870862 -3.320955 -0.029951 3.117001 1.424239 0.843833 3.170809 2.293897 0.972210 0.000000 0.000000 0.000000 
-2771.636475 963.867798 1062.548950 -3.361938 -0.461470 0.271332 -1.676198 1.663848 1.724505 -1.824425 -0.385305 -0.376366 -1.791999 0.353247 0.286260 1.109107 0.480867 -2.079478 0.000000 0.000000 0.000000 -3.290714 -13.429741 -1.337138 -17.503989 -7.312442 -1.894982 -171.020791 -64.878835 -139.750437 0.000000 0.000000 0.000000 3.347426 -12.319470 2.459828 48.163149 -3.770422 1.105046 -174.399135 -44.943674 113.970304 0.000000 0.000000 0.000000 -2.088616 -4.103021 -5.627424 -2.291603 4.075986 1.185442 -2.239984 0.169211 -0.965876 0.000000 0.000000 0.000000 2.880391 -3.311318 -0.041386 3.124673 1.433788 0.856726 3.177770 2.283405 0.977371 0.000000 0.000000 0.000000 
-2771.598633 963.831909 1062.529053 -3.376702 -0.472945 0.274150 -1.674125 1.659330 1.725296 -1.822278 -0.382125 -0.376827 -1.789874 0.350079 0.285902 1.110026 0.485733 -2.081945 0.000000 0.000000 0.000000 -3.304167 -13.428035 -1.345361 -17.554063 -7.304182 -1.880399 -171.035461 -64.845992 -139.661745 0.000000 0.000000 0.000000 3.337715 -12.289639 2.443707 48.073270 -3.776883 1.109528 -174.381132 -45.061100 114.010611 0.000000 0.000000 0.000000 -2.083991 -4.109891 -5.629011 -2.285937 4.109384 1.183589 -2.236263 0.173504 -0.963994 0.000000 0.000000 0.000000 2.887406 -3.307341 -0.045401 3.131998 1.459819 0.866074 3.182871 2.268816 0.982495 0.000000 0.000000 0.000000 
-2771.559082 963.793335 1062.503052 -3.387893 -0.485417 0.274280 -1.672303 1.655317 1.729219 -1.820601 -0.377270 -0.377698 -1.788114 0.346634 0.286584 1.111851 0.484126 -2.085511 0.000000 0.000000 0.000000 -3.317643 -13.426061 -1.354472 -17.610363 -7.294330 -1.866582 -171.052524 -64.803390 -139.566577 0.000000 0.000000 0.000000 3.324508 -12.234753 2.424732 47.901536 -3.782835 1.115836 -174.373870 -45.276187 114.112220 0.000000 0.000000 0.000000 -2.081277 -4.114455 -5.627797 -2.282122 4.140534 1.182120 -2.233993 0.185287 -0.962314 0.000000 0.000000 0.000000 2.892363 -3.307082 -0.045674 3.138341 1.493762 0.874332 3.186344 2.252450 0.987235 0.000000 0.000000 0.000000 
